<?xml version="1.0" encoding="UTF-8" standalone="no"?>
<svg
   xmlns:dc="http://purl.org/dc/elements/1.1/"
   xmlns:cc="http://creativecommons.org/ns#"
   xmlns:rdf="http://www.w3.org/1999/02/22-rdf-syntax-ns#"
   xmlns:svg="http://www.w3.org/2000/svg"
   xmlns="http://www.w3.org/2000/svg"
   viewBox="0 0 420.83374 500"
   height="500"
   width="420.83374"
   xml:space="preserve"
   version="1.1"
   id="svg2"><metadata
     id="metadata8"><rdf:RDF><cc:Work
         rdf:about=""><dc:format>image/svg+xml</dc:format><dc:type
           rdf:resource="http://purl.org/dc/dcmitype/StillImage" /></cc:Work></rdf:RDF></metadata><defs
     id="defs6"><clipPath
       id="clipPath16"
       clipPathUnits="userSpaceOnUse"><path
         id="path18"
         d="m 0,400 336.667,0 0,-400 L 0,0 0,400 Z" /></clipPath></defs><g
     transform="matrix(1.25,0,0,-1.25,0,500)"
     id="g10"><g
       id="g12"><g
         clip-path="url(#clipPath16)"
         id="g14"><g
           transform="translate(189.6667,172)"
           id="g20"><path
             id="path22"
             style="fill:#ca1e25;fill-opacity:1;fill-rule:nonzero;stroke:none"
             d="m 0,0 c 0,-13.807 -9.962,-25 -22.25,-25 -12.288,0 -22.25,11.193 -22.25,25 0,13.807 9.962,25 22.25,25 C -9.962,25 0,13.807 0,0" /></g><g
           transform="translate(140.5,358.1667)"
           id="g24"><path
             id="path26"
             style="fill:#ffffff;fill-opacity:1;fill-rule:nonzero;stroke:#231f20;stroke-width:4;stroke-linecap:butt;stroke-linejoin:miter;stroke-miterlimit:10;stroke-dasharray:none;stroke-opacity:1"
             d="M 0,0 -2.837,0 C -2.943,0.525 -3,1.068 -3,1.625 l 0,12.25 c 0,0.898 0.075,1.567 0.344,2.375 l 0.077,0.192 C -1.504,19.67 1.536,22 5.125,22 l 44.25,0 c 3.404,0 6.314,-2.095 7.524,-5.064 l 0.054,-0.092 C 57.338,15.898 57.5,14.959 57.5,13.875 l 0,-12.25 C 57.5,1.068 57.443,0.525 57.337,0 L 54.016,0 53.25,0 0,0" /></g><g
           transform="translate(187.963,52.091)"
           id="g28"><path
             id="path30"
             style="fill:#ca1e25;fill-opacity:1;fill-rule:nonzero;stroke:none"
             d="m 0,0 c -0.388,-9.28 -8.012,-16.691 -17.388,-16.691 l -6.15,0 c -9.178,0 -16.681,7.1 -17.358,16.104 -0.962,-7.66 -9.847,-18.164 -32.59,-4.121 l 0,-8.873 -0.008,-1.625 c -0.336,-7.558 23.823,-16.943 53.156,-16.968 29.329,-0.026 53.104,7.592 53.104,16.958 l 0.038,0.333 0,12.224 C 10.203,-17.512 1.058,-7.89 0,0" /></g><g
           transform="translate(187.963,52.091)"
           id="g32"><path
             id="path34"
             style="fill:none;stroke:#231f20;stroke-width:4;stroke-linecap:butt;stroke-linejoin:miter;stroke-miterlimit:10;stroke-dasharray:none;stroke-opacity:1"
             d="m 0,0 c -0.388,-9.28 -8.012,-16.691 -17.388,-16.691 l -6.15,0 c -9.178,0 -16.681,7.1 -17.358,16.104 -0.962,-7.66 -9.847,-18.164 -32.59,-4.121 l 0,-8.873 -0.008,-1.625 c -0.336,-7.558 23.823,-16.943 53.156,-16.968 29.329,-0.026 53.104,7.592 53.104,16.958 l 0.038,0.333 0,12.224 C 10.203,-17.512 1.058,-7.89 0,0 Z" /></g><g
           transform="translate(147.0026,178.3826)"
           id="g36"><path
             id="path38"
             style="fill:#ca1e25;fill-opacity:1;fill-rule:nonzero;stroke:#231f20;stroke-width:4;stroke-linecap:butt;stroke-linejoin:miter;stroke-miterlimit:10;stroke-dasharray:none;stroke-opacity:1"
             d="m 0,0 c 0.058,-0.473 0.114,-0.948 0.139,-1.432 l 0,-124.631 c -0.015,-0.267 -0.04,-0.54 -0.075,-0.815 0.677,-9.005 8.181,-16.105 17.358,-16.105 l 6.15,0 c 9.376,0 17.001,7.411 17.388,16.691 -0.07,0.528 -0.107,1.049 -0.107,1.553 l 0,124.631 c 0,0.493 0.033,0.977 0.073,1.46" /></g><g
           transform="translate(220.3683,192.9702)"
           id="g40"><path
             id="path42"
             style="fill:#ca1e25;fill-opacity:1;fill-rule:nonzero;stroke:#231f20;stroke-width:4;stroke-linecap:butt;stroke-linejoin:miter;stroke-miterlimit:10;stroke-dasharray:none;stroke-opacity:1"
             d="m 0,0 0.399,-4.313 0,-139.225" /></g><g
           transform="translate(205.1589,195.5778)"
           id="g44"><path
             id="path46"
             style="fill:#ca1e25;fill-opacity:1;fill-rule:nonzero;stroke:none"
             d="m 0,0 c -9.063,0 -16.487,-6.972 -17.23,-15.843 0.037,-0.465 0.071,-0.93 0.071,-1.404 l 0,-125.506 c 0,-0.248 -0.027,-0.489 -0.037,-0.734 1.058,-7.89 10.203,-17.512 32.804,-2.659 l 0,139.225 -0.399,4.313 C 12.563,-0.965 9.451,0 6.107,0 L 0,0 Z" /></g><g
           transform="translate(205.1589,195.5778)"
           id="g48"><path
             id="path50"
             style="fill:none;stroke:#231f20;stroke-width:4;stroke-linecap:butt;stroke-linejoin:miter;stroke-miterlimit:10;stroke-dasharray:none;stroke-opacity:1"
             d="m 0,0 c -9.063,0 -16.487,-6.972 -17.23,-15.843 0.037,-0.465 0.071,-0.93 0.071,-1.404 l 0,-125.506 c 0,-0.248 -0.027,-0.489 -0.037,-0.734 1.058,-7.89 10.203,-17.512 32.804,-2.659 l 0,139.225 -0.399,4.313 C 12.563,-0.965 9.451,0 6.107,0 L 0,0 Z" /></g><g
           transform="translate(188,178.3306)"
           id="g52"><path
             id="path54"
             style="fill:#ca1e25;fill-opacity:1;fill-rule:nonzero;stroke:none"
             d="m 0,0 c 0,0.474 -0.034,0.94 -0.071,1.404 -0.04,-0.483 -0.074,-0.967 -0.074,-1.46 l 0,-124.631 c 0,-0.504 0.037,-1.025 0.108,-1.553 0.01,0.246 0.037,0.487 0.037,0.734 L 0,0 Z" /></g><g
           transform="translate(188,178.3306)"
           id="g56"><path
             id="path58"
             style="fill:none;stroke:#231f20;stroke-width:4;stroke-linecap:butt;stroke-linejoin:miter;stroke-miterlimit:10;stroke-dasharray:none;stroke-opacity:1"
             d="m 0,0 c 0,0.474 -0.034,0.94 -0.071,1.404 -0.04,-0.483 -0.074,-0.967 -0.074,-1.46 l 0,-124.631 c 0,-0.504 0.037,-1.025 0.108,-1.553 0.01,0.246 0.037,0.487 0.037,0.734 L 0,0 Z" /></g><g
           transform="translate(147.0667,51.5043)"
           id="g60"><path
             id="path62"
             style="fill:#ca1e25;fill-opacity:1;fill-rule:nonzero;stroke:none"
             d="m 0,0 c -0.033,0.437 -0.067,0.875 -0.067,1.321 l 0,125.505 c 0,0.018 0.003,0.035 0.003,0.052 -1.135,9.191 -8.573,16.203 -17.662,16.203 l -6.107,0 c -3.113,0 -6.027,-0.835 -8.551,-2.308 -0.132,-1.915 -0.214,-3.816 -0.214,-5.704 l 0.009,-0.094 0,-139.096 C -9.847,-18.164 -0.962,-7.66 0,0" /></g><g
           transform="translate(147.0667,51.5043)"
           id="g64"><path
             id="path66"
             style="fill:none;stroke:#231f20;stroke-width:4;stroke-linecap:butt;stroke-linejoin:miter;stroke-miterlimit:10;stroke-dasharray:none;stroke-opacity:1"
             d="m 0,0 c -0.033,0.437 -0.067,0.875 -0.067,1.321 l 0,125.505 c 0,0.018 0.003,0.035 0.003,0.052 -1.135,9.191 -8.573,16.203 -17.662,16.203 l -6.107,0 c -3.113,0 -6.027,-0.835 -8.551,-2.308 -0.132,-1.915 -0.214,-3.816 -0.214,-5.704 l 0.009,-0.094 0,-139.096 C -9.847,-18.164 -0.962,-7.66 0,0 Z" /></g><g
           transform="translate(200.7964,151)"
           id="g68"><path
             id="path70"
             style="fill:#ffffff;fill-opacity:1;fill-rule:nonzero;stroke:none"
             d="m 0,0 2.848,18.302 c -10.8,5.145 -22.884,8.031 -35.644,8.031 -12.939,0 -25.186,-2.963 -36.101,-8.244 L -66.082,0 -75.777,0 -62.059,-94 -3.867,-94 9.851,0 0,0 Z" /></g><g
           transform="translate(200.7964,151)"
           id="g72"><path
             id="path74"
             style="fill:none;stroke:#231f20;stroke-width:4;stroke-linecap:butt;stroke-linejoin:miter;stroke-miterlimit:10;stroke-dasharray:none;stroke-opacity:1"
             d="m 0,0 2.848,18.302 c -10.8,5.145 -22.884,8.031 -35.644,8.031 -12.939,0 -25.186,-2.963 -36.101,-8.244 L -66.082,0 -75.777,0 -62.059,-94 -3.867,-94 9.851,0 0,0 Z" /></g><g
           transform="translate(143.0605,61.9997)"
           id="g76"><path
             id="path78"
             style="fill:#ffffff;fill-opacity:1;fill-rule:nonzero;stroke:none"
             d="m 0,0 -12.259,84 9.752,0 -3.131,20.112 c 9.661,4.13 19.93,6.222 30.577,6.222 10.469,0 20.582,-2.027 30.118,-6.032 L 51.897,84 61.804,84 49.545,0 0,0 Z" /></g><g
           transform="translate(143.0605,61.9997)"
           id="g80"><path
             id="path82"
             style="fill:none;stroke:#3871c1;stroke-width:3;stroke-linecap:butt;stroke-linejoin:miter;stroke-miterlimit:10;stroke-dasharray:none;stroke-opacity:1"
             d="m 0,0 -12.259,84 9.752,0 -3.131,20.112 c 9.661,4.13 19.93,6.222 30.577,6.222 10.469,0 20.582,-2.027 30.118,-6.032 L 51.897,84 61.804,84 49.545,0 0,0 Z" /></g><g
           transform="translate(145.6543,64.9997)"
           id="g84"><path
             id="path86"
             style="fill:#ffffff;fill-opacity:1;fill-rule:nonzero;stroke:none"
             d="m 0,0 -11.383,78 9.785,0 -3.305,21.233 c 8.655,3.386 17.81,5.101 27.249,5.101 9.263,0 18.263,-1.656 26.786,-4.927 L 45.801,78 55.741,78 44.358,0 0,0 Z" /></g><g
           transform="translate(145.6543,64.9997)"
           id="g88"><path
             id="path90"
             style="fill:none;stroke:#3871c1;stroke-width:1;stroke-linecap:butt;stroke-linejoin:miter;stroke-miterlimit:10;stroke-dasharray:none;stroke-opacity:1"
             d="m 0,0 -11.383,78 9.785,0 -3.305,21.233 c 8.655,3.386 17.81,5.101 27.249,5.101 9.263,0 18.263,-1.656 26.786,-4.927 L 45.801,78 55.741,78 44.358,0 0,0 Z" /></g><g
           transform="translate(139.8206,311)"
           id="g92"><path
             id="path94"
             style="fill:#ca1e25;fill-opacity:1;fill-rule:nonzero;stroke:none"
             d="m 0,0 c -0.854,-12.622 -2.316,-24.372 -4.217,-35.274 l -0.041,-0.184 c -3.502,-20.09 -8.695,-39.399 -15.517,-58.132 -0.107,-0.29 -0.211,-0.581 -0.315,-0.872 l -4.189,-16.456 c -0.401,-2.64 -0.681,-5.235 -0.859,-7.805 2.524,1.474 5.438,2.308 8.551,2.308 l 6.108,0 c 9.088,0 16.526,-7.012 17.661,-16.202 0.028,9.599 7.816,17.373 17.422,17.373 l 6.15,0 c 9.15,0 16.638,-7.056 17.354,-16.021 0.744,8.871 8.167,15.843 17.23,15.843 l 6.107,0 c 3.344,0 6.456,-0.965 9.103,-2.608 l -0.64,6.924 c -0.874,5.747 -2.298,11.311 -4.209,16.644 -0.105,0.291 -0.209,0.582 -0.316,0.872 l -0.032,0.1 c -6.822,18.733 -12.024,38.127 -15.526,58.216 l -0.052,0.253 C 57.761,-23.481 56.352,-11.83 55.53,0 l -0.851,34 0,13.667 -54,0 0,-10.865 0,-0.802 0,-2 L 0,0 Z" /></g><g
           transform="translate(139.8206,311)"
           id="g96"><path
             id="path98"
             style="fill:none;stroke:#231f20;stroke-width:4;stroke-linecap:butt;stroke-linejoin:miter;stroke-miterlimit:10;stroke-dasharray:none;stroke-opacity:1"
             d="m 0,0 c -0.854,-12.622 -2.316,-24.372 -4.217,-35.274 l -0.041,-0.184 c -3.502,-20.09 -8.695,-39.399 -15.517,-58.132 -0.107,-0.29 -0.211,-0.581 -0.315,-0.872 l -4.189,-16.456 c -0.401,-2.64 -0.681,-5.235 -0.859,-7.805 2.524,1.474 5.438,2.308 8.551,2.308 l 6.108,0 c 9.088,0 16.526,-7.012 17.661,-16.202 0.028,9.599 7.816,17.373 17.422,17.373 l 6.15,0 c 9.15,0 16.638,-7.056 17.354,-16.021 0.744,8.871 8.167,15.843 17.23,15.843 l 6.107,0 c 3.344,0 6.456,-0.965 9.103,-2.608 l -0.64,6.924 c -0.874,5.747 -2.298,11.311 -4.209,16.644 -0.105,0.291 -0.209,0.582 -0.316,0.872 l -0.032,0.1 c -6.822,18.733 -12.024,38.127 -15.526,58.216 l -0.052,0.253 C 57.761,-23.481 56.352,-11.83 55.53,0 l -0.851,34 0,13.667 -54,0 0,-10.865 0,-0.802 0,-2 L 0,0 Z" /></g><g
           transform="translate(153.2134,159.5329)"
           id="g100"><path
             id="path102"
             style="fill:#231f20;fill-opacity:1;fill-rule:nonzero;stroke:none"
             d="m 0,0 c -0.518,-0.103 -0.958,-0.478 -1.319,-1.124 -0.409,-0.778 -0.505,-1.709 -0.291,-2.792 0.215,-1.083 0.66,-1.912 1.337,-2.487 0.581,-0.46 1.129,-0.639 1.648,-0.536 0.529,0.105 0.969,0.479 1.318,1.124 0.418,0.792 0.52,1.729 0.306,2.812 C 2.784,-1.92 2.333,-1.098 1.647,-0.536 1.079,-0.074 0.53,0.104 0,0 m 1.819,-9.182 c -1.33,-0.263 -2.576,0.068 -3.738,0.994 -1.163,0.925 -1.898,2.171 -2.209,3.737 -0.31,1.565 -0.104,2.998 0.617,4.297 0.721,1.299 1.747,2.08 3.077,2.343 C 0.908,2.455 2.16,2.125 3.322,1.199 4.484,0.273 5.221,-0.973 5.531,-2.538 5.841,-4.104 5.635,-5.535 4.914,-6.835 4.192,-8.134 3.161,-8.916 1.819,-9.182" /></g><g
           transform="translate(163.0791,160.6081)"
           id="g104"><path
             id="path106"
             style="fill:#231f20;fill-opacity:1;fill-rule:nonzero;stroke:none"
             d="m 0,0 -0.507,-0.027 0.174,-3.217 0.562,0.03 c 1.279,0.069 1.887,0.689 1.824,1.858 C 2.02,-0.754 1.811,-0.354 1.425,-0.158 1.139,-0.017 0.664,0.036 0,0 m 0.613,-5.339 -0.829,-0.045 0.121,-2.246 c 0.024,-0.432 0.182,-0.808 0.476,-1.128 l -3.307,-0.18 c 0.234,0.349 0.339,0.74 0.315,1.171 L -3.082,0.914 C -3.106,1.357 -3.259,1.734 -3.54,2.043 L 0.396,2.257 C 2.901,2.393 4.228,1.197 4.376,-1.331 4.44,-2.276 4.208,-3.112 3.68,-3.838 3.031,-4.763 2.009,-5.263 0.613,-5.339" /></g><g
           transform="translate(174.8555,151.696)"
           id="g108"><path
             id="path110"
             style="fill:#231f20;fill-opacity:1;fill-rule:nonzero;stroke:none"
             d="m 0,0 -6.61,0.422 c 0.273,0.331 0.423,0.706 0.45,1.125 l 0.554,8.677 c 0.027,0.442 -0.08,0.835 -0.323,1.174 L 0.556,10.985 0.395,8.452 C 0.052,8.738 -0.316,8.895 -0.712,8.919 L -3.155,9.075 -3.261,7.404 -1.429,7.288 c 0.287,-0.018 0.593,0.064 0.918,0.248 L -0.686,4.806 C -1.021,5.019 -1.32,5.135 -1.583,5.151 L -3.397,5.267 -3.582,2.375 -0.744,2.193 C -0.373,2.17 0.067,2.286 0.577,2.543 L 0,0 Z" /></g><g
           transform="translate(181.3726,150.6247)"
           id="g112"><path
             id="path114"
             style="fill:#231f20;fill-opacity:1;fill-rule:nonzero;stroke:none"
             d="M 0,0 -1.795,6.171 -2.654,1.697 C -2.734,1.279 -2.672,0.872 -2.467,0.474 L -5.72,1.099 c 0.313,0.294 0.509,0.647 0.588,1.059 l 1.639,8.538 c 0.084,0.437 0.027,0.839 -0.171,1.206 L -0.765,11.346 0.942,5.538 1.74,9.692 c 0.084,0.436 0.02,0.839 -0.189,1.209 l 3.27,-0.628 C 4.5,10.005 4.297,9.647 4.211,9.199 L 2.576,0.679 C 2.496,0.267 2.554,-0.136 2.747,-0.527 L 0,0 Z" /></g><g
           transform="translate(163.1802,145.6725)"
           id="g116"><path
             id="path118"
             style="fill:#ee243f;fill-opacity:1;fill-rule:nonzero;stroke:none"
             d="m 0,0 c -0.115,-0.126 -0.375,-0.338 -0.782,-0.636 -0.567,-0.412 -0.871,-0.836 -0.911,-1.271 l 1.401,0 c 0.177,0 0.383,0.068 0.618,0.206 L 0.12,-2.93 l -3.144,0 0,1.08 c 0,0.613 0.489,1.289 1.469,2.033 0.114,0.086 0.257,0.194 0.429,0.326 0.189,0.166 0.284,0.326 0.284,0.48 0,0.189 -0.109,0.312 -0.327,0.368 -0.068,0.018 -0.154,0.027 -0.257,0.027 -0.545,0 -1.029,-0.224 -1.452,-0.671 l 0,1.753 c 0.12,-0.16 0.22,-0.237 0.3,-0.232 0.012,0 0.163,0.035 0.455,0.103 0.212,0.046 0.427,0.069 0.645,0.069 0.527,0 0.954,-0.12 1.28,-0.361 C 0.191,1.759 0.366,1.352 0.326,0.825 0.297,0.498 0.189,0.224 0,0" /></g><g
           transform="translate(166.6768,147.0387)"
           id="g120"><path
             id="path122"
             style="fill:#ee243f;fill-opacity:1;fill-rule:nonzero;stroke:none"
             d="m 0,0 c -0.257,0 -0.498,-0.131 -0.722,-0.395 -0.263,-0.319 -0.395,-0.736 -0.395,-1.251 0,-0.513 0.132,-0.928 0.395,-1.242 0.224,-0.268 0.465,-0.403 0.722,-0.403 0.258,0 0.499,0.135 0.722,0.403 0.269,0.314 0.404,0.729 0.404,1.242 0,0.515 -0.135,0.932 -0.404,1.251 C 0.499,-0.131 0.258,0 0,0 m 0,-4.356 c -0.647,0 -1.2,0.264 -1.658,0.793 -0.458,0.53 -0.687,1.166 -0.687,1.909 0,0.744 0.229,1.379 0.687,1.904 C -1.2,0.776 -0.647,1.04 0,1.04 0.653,1.04 1.208,0.776 1.667,0.25 2.125,-0.275 2.354,-0.91 2.354,-1.654 2.354,-2.397 2.125,-3.033 1.667,-3.563 1.208,-4.092 0.653,-4.356 0,-4.356" /></g><g
           transform="translate(170.2251,142.7428)"
           id="g124"><path
             id="path126"
             style="fill:#ee243f;fill-opacity:1;fill-rule:nonzero;stroke:none"
             d="m 0,0 c 0.121,0.166 0.181,0.351 0.181,0.551 l 0,3.677 C 0.014,4.222 -0.175,4.152 -0.387,4.021 l 0.198,1.229 1.555,0 0,-4.7 C 1.366,0.344 1.426,0.16 1.547,0 L 0,0 Z" /></g><g
           transform="translate(174.272,142.7087)"
           id="g128"><path
             id="path130"
             style="fill:#ee243f;fill-opacity:1;fill-rule:nonzero;stroke:none"
             d="m 0,0 c -0.247,-0.04 -0.63,-0.018 -1.151,0.068 -0.109,0.018 -0.178,0.027 -0.206,0.027 -0.104,0 -0.221,-0.055 -0.353,-0.164 l 0,1.598 c 0.401,-0.343 0.811,-0.515 1.229,-0.515 0.16,0 0.309,0.031 0.446,0.093 0.316,0.149 0.473,0.33 0.473,0.546 0,0.228 -0.117,0.39 -0.352,0.487 -0.167,0.074 -0.413,0.111 -0.739,0.111 l -0.258,0 c -0.137,0 -0.292,-0.04 -0.464,-0.12 l 0,1.28 C -1.22,3.319 -1.068,3.273 -0.919,3.273 l 0.386,0 c 0.441,0 0.662,0.166 0.662,0.498 0,0.224 -0.086,0.365 -0.258,0.421 -0.189,0.064 -0.372,0.095 -0.55,0.095 -0.372,0 -0.719,-0.138 -1.039,-0.412 l 0,1.589 C -1.581,5.332 -1.464,5.27 -1.366,5.275 -1.211,5.298 -0.977,5.321 -0.662,5.344 0.054,5.355 0.57,5.235 0.885,4.983 1.177,4.754 1.332,4.487 1.349,4.185 1.372,3.669 1.22,3.262 0.894,2.964 1.088,2.878 1.234,2.792 1.332,2.706 1.606,2.466 1.727,2.094 1.692,1.589 1.664,1.165 1.492,0.811 1.177,0.523 0.862,0.237 0.47,0.062 0,0" /></g><g
           transform="translate(183.8833,146.5163)"
           id="g132"><path
             id="path134"
             style="fill:#ee243f;fill-opacity:1;fill-rule:nonzero;stroke:none"
             d="m 0,0 -0.155,0 0,-0.956 0.158,0 c 0.128,0 0.225,0.053 0.291,0.158 0.054,0.086 0.081,0.196 0.081,0.331 0,0.194 -0.044,0.324 -0.13,0.393 -0.044,0.033 -0.08,0.053 -0.109,0.061 C 0.107,-0.004 0.062,0 0,0 m -0.003,-1.309 -0.609,0 c 0.041,0.045 0.061,0.104 0.061,0.173 l 0,1.316 c 0,0.074 -0.021,0.132 -0.065,0.175 l 0.573,0 c 0.136,0 0.241,-0.009 0.315,-0.03 C 0.374,0.3 0.465,0.251 0.548,0.177 0.698,0.042 0.773,-0.167 0.773,-0.452 0.773,-0.763 0.7,-0.982 0.554,-1.11 0.463,-1.189 0.379,-1.241 0.303,-1.269 0.227,-1.295 0.125,-1.309 -0.003,-1.309" /></g><g
           transform="translate(178.7798,144.3092)"
           id="g136"><path
             id="path138"
             style="fill:#ee243f;fill-opacity:1;fill-rule:nonzero;stroke:none"
             d="m 0,0 -1.581,0 c 0.06,0.083 0.09,0.175 0.09,0.275 l 0,2.075 c 0,0.106 -0.031,0.198 -0.094,0.275 l 1.55,0 0,-0.605 c -0.086,0.062 -0.176,0.093 -0.27,0.093 l -0.585,0 0,-0.399 0.439,0 c 0.069,0 0.14,0.024 0.215,0.073 l 0,-0.653 C -0.32,1.18 -0.393,1.203 -0.456,1.203 l -0.434,0 0,-0.692 0.679,0 c 0.089,0 0.192,0.035 0.31,0.103 L 0,0 Z" /></g><g
           transform="translate(179.9136,144.2487)"
           id="g140"><path
             id="path142"
             style="fill:#ee243f;fill-opacity:1;fill-rule:nonzero;stroke:none"
             d="m 0,0 c -0.049,0 -0.216,0.026 -0.502,0.078 -0.049,0.011 -0.085,0.016 -0.108,0.013 -0.055,0 -0.133,-0.049 -0.236,-0.147 l 0,1.044 c 0.235,-0.274 0.498,-0.412 0.79,-0.412 0.241,0 0.361,0.086 0.361,0.257 0,0.123 -0.116,0.236 -0.348,0.339 -0.275,0.123 -0.456,0.219 -0.541,0.287 -0.164,0.135 -0.245,0.314 -0.245,0.541 0,0.239 0.081,0.423 0.245,0.548 0.148,0.114 0.345,0.172 0.588,0.172 0.072,0 0.155,-0.014 0.249,-0.041 0.095,-0.028 0.162,-0.042 0.203,-0.045 0.043,0 0.103,0.043 0.18,0.129 l 0,-0.971 c -0.218,0.261 -0.444,0.391 -0.679,0.391 -0.123,0 -0.185,-0.046 -0.185,-0.137 0,-0.064 0.033,-0.11 0.099,-0.142 C -0.046,1.87 0.076,1.818 0.236,1.75 0.683,1.553 0.906,1.273 0.906,0.914 0.906,0.665 0.817,0.45 0.638,0.271 0.459,0.091 0.246,0 0,0" /></g><g
           transform="translate(182.7559,146.4225)"
           id="g144"><path
             id="path146"
             style="fill:#ee243f;fill-opacity:1;fill-rule:nonzero;stroke:none"
             d="m 0,0 -0.54,0 0,-1.834 c 0,-0.066 0.029,-0.159 0.086,-0.279 l -0.786,0 c 0.066,0.077 0.099,0.169 0.099,0.275 l 0,1.838 -0.537,0 C -1.77,0 -1.875,-0.034 -1.992,-0.103 l 0.103,0.615 2.101,0 0.103,-0.615 C 0.197,-0.034 0.092,0 0,0" /></g><g
           transform="translate(158.0767,146.5163)"
           id="g148"><path
             id="path150"
             style="fill:#ee243f;fill-opacity:1;fill-rule:nonzero;stroke:none"
             d="m 0,0 -0.155,0 0,-0.956 0.158,0 c 0.128,0 0.225,0.053 0.291,0.158 0.054,0.086 0.081,0.196 0.081,0.331 0,0.194 -0.044,0.324 -0.13,0.393 -0.044,0.033 -0.08,0.053 -0.109,0.061 C 0.107,-0.004 0.062,0 0,0 m -0.003,-1.309 -0.609,0 c 0.041,0.045 0.061,0.104 0.061,0.173 l 0,1.316 c 0,0.074 -0.021,0.132 -0.065,0.175 l 0.573,0 c 0.136,0 0.241,-0.009 0.315,-0.03 C 0.374,0.3 0.465,0.251 0.548,0.177 0.698,0.042 0.773,-0.167 0.773,-0.452 0.773,-0.763 0.7,-0.982 0.554,-1.11 0.463,-1.189 0.379,-1.241 0.303,-1.269 0.227,-1.295 0.125,-1.309 -0.003,-1.309" /></g><g
           transform="translate(152.9727,144.3092)"
           id="g152"><path
             id="path154"
             style="fill:#ee243f;fill-opacity:1;fill-rule:nonzero;stroke:none"
             d="m 0,0 -1.581,0 c 0.06,0.083 0.09,0.175 0.09,0.275 l 0,2.075 c 0,0.106 -0.031,0.198 -0.094,0.275 l 1.55,0 0,-0.605 c -0.086,0.062 -0.176,0.093 -0.27,0.093 l -0.585,0 0,-0.399 0.439,0 c 0.069,0 0.14,0.024 0.215,0.073 l 0,-0.653 C -0.32,1.18 -0.393,1.203 -0.456,1.203 l -0.434,0 0,-0.692 0.679,0 c 0.089,0 0.192,0.035 0.31,0.103 L 0,0 Z" /></g><g
           transform="translate(154.1064,144.2487)"
           id="g156"><path
             id="path158"
             style="fill:#ee243f;fill-opacity:1;fill-rule:nonzero;stroke:none"
             d="m 0,0 c -0.049,0 -0.216,0.026 -0.502,0.078 -0.049,0.011 -0.085,0.016 -0.108,0.013 -0.055,0 -0.133,-0.049 -0.236,-0.147 l 0,1.044 c 0.235,-0.274 0.498,-0.412 0.79,-0.412 0.241,0 0.361,0.086 0.361,0.257 0,0.123 -0.116,0.236 -0.348,0.339 -0.275,0.123 -0.456,0.219 -0.541,0.287 -0.164,0.135 -0.245,0.314 -0.245,0.541 0,0.239 0.081,0.423 0.245,0.548 0.148,0.114 0.345,0.172 0.588,0.172 0.072,0 0.155,-0.014 0.249,-0.041 0.095,-0.028 0.162,-0.042 0.203,-0.045 0.043,0 0.103,0.043 0.18,0.129 l 0,-0.971 c -0.218,0.261 -0.444,0.391 -0.679,0.391 -0.123,0 -0.185,-0.046 -0.185,-0.137 0,-0.064 0.033,-0.11 0.099,-0.142 C -0.046,1.87 0.076,1.818 0.236,1.75 0.683,1.553 0.906,1.273 0.906,0.914 0.906,0.665 0.817,0.45 0.638,0.271 0.459,0.091 0.246,0 0,0" /></g><g
           transform="translate(156.9487,146.4225)"
           id="g160"><path
             id="path162"
             style="fill:#ee243f;fill-opacity:1;fill-rule:nonzero;stroke:none"
             d="m 0,0 -0.54,0 0,-1.834 c 0,-0.066 0.029,-0.159 0.086,-0.279 l -0.786,0 c 0.066,0.077 0.099,0.169 0.099,0.275 l 0,1.838 -0.537,0 C -1.77,0 -1.875,-0.034 -1.992,-0.103 l 0.103,0.615 2.101,0 0.103,-0.615 C 0.197,-0.034 0.092,0 0,0" /></g><g
           transform="translate(148.2783,126.0397)"
           id="g164"><path
             id="path166"
             style="fill:#231f20;fill-opacity:1;fill-rule:nonzero;stroke:none"
             d="m 0,0 c -0.238,0 -1.058,0.127 -2.457,0.381 -0.238,0.054 -0.413,0.074 -0.525,0.06 -0.266,0 -0.651,-0.238 -1.155,-0.714 l 0,5.103 c 1.148,-1.344 2.436,-2.017 3.864,-2.017 1.175,0 1.764,0.42 1.764,1.258 0,0.601 -0.567,1.153 -1.701,1.656 -1.345,0.601 -2.227,1.069 -2.646,1.405 -0.798,0.656 -1.197,1.536 -1.197,2.64 0,1.173 0.399,2.068 1.197,2.682 0.727,0.56 1.687,0.839 2.877,0.839 0.349,0 0.755,-0.066 1.218,-0.199 0.462,-0.134 0.79,-0.207 0.987,-0.221 0.21,0 0.503,0.21 0.881,0.63 l 0,-4.746 c -1.063,1.273 -2.17,1.911 -3.317,1.911 -0.602,0 -0.903,-0.224 -0.903,-0.671 0,-0.308 0.161,-0.538 0.483,-0.691 0.405,-0.168 1,-0.419 1.785,-0.755 C 3.339,7.587 4.431,6.225 4.431,4.464 4.431,3.248 3.993,2.2 3.118,1.32 2.243,0.44 1.204,0 0,0" /></g><g
           transform="translate(157.5811,136.1618)"
           id="g168"><path
             id="path170"
             style="fill:#231f20;fill-opacity:1;fill-rule:nonzero;stroke:none"
             d="m 0,0 -0.651,-4.62 1.323,0 L 0,0 Z m 1.365,-9.828 c 0.14,0.237 0.21,0.524 0.21,0.859 0,0.154 -0.025,0.307 -0.076,0.461 l -0.294,1.389 -2.403,0 c -0.224,-1.036 -0.335,-1.666 -0.335,-1.89 0,-0.35 0.063,-0.623 0.189,-0.819 l -3.864,0 c 0.112,0.112 0.217,0.238 0.315,0.378 0.224,0.322 0.371,0.651 0.441,0.987 L -2.31,1.68 c 0.028,0.154 0.042,0.307 0.042,0.462 0,0.336 -0.07,0.623 -0.211,0.861 l 4.978,0 C 2.358,2.765 2.289,2.478 2.289,2.142 2.289,1.987 2.303,1.834 2.331,1.68 L 4.473,-8.463 c 0.112,-0.504 0.364,-0.959 0.756,-1.365 l -3.864,0 z" /></g><g
           transform="translate(171.8828,137.821)"
           id="g172"><path
             id="path174"
             style="fill:#231f20;fill-opacity:1;fill-rule:nonzero;stroke:none"
             d="m 0,0 0,-8.106 c 0,-0.182 0.084,-0.449 0.252,-0.798 -0.561,-0.966 -1.12,-1.646 -1.681,-2.037 -0.714,-0.491 -1.679,-0.736 -2.897,-0.736 -1.246,0 -2.234,0.26 -2.961,0.778 -0.519,0.364 -1.065,1.029 -1.638,1.995 0.168,0.391 0.252,0.658 0.252,0.798 l 0,8.106 c 0,0.518 -0.154,0.966 -0.463,1.344 l 3.802,0 C -5.601,0.756 -5.733,0.301 -5.733,-0.021 l 0,-8.295 c 0,-0.323 0.138,-0.578 0.416,-0.767 0.276,-0.188 0.607,-0.29 0.991,-0.305 0.341,0 0.657,0.099 0.949,0.294 0.291,0.197 0.437,0.455 0.437,0.778 l 0,8.295 c 0,0.322 -0.14,0.777 -0.42,1.365 l 3.822,0 C 0.153,0.966 0,0.518 0,0" /></g><g
           transform="translate(181.2695,126.3337)"
           id="g176"><path
             id="path178"
             style="fill:#231f20;fill-opacity:1;fill-rule:nonzero;stroke:none"
             d="m 0,0 c -0.253,-0.056 -0.819,-0.112 -1.701,-0.168 -1.807,-0.042 -3.277,0.497 -4.41,1.617 -0.603,0.602 -1.082,1.355 -1.439,2.257 -0.357,0.903 -0.535,1.789 -0.535,2.657 0,1.988 0.672,3.612 2.016,4.872 1.204,1.148 2.694,1.736 4.472,1.764 0.281,0 0.575,-0.035 0.882,-0.105 0.309,-0.07 0.505,-0.105 0.589,-0.105 0.279,0 0.56,0.154 0.84,0.462 l 0,-3.927 c -0.756,0.699 -1.625,1.05 -2.605,1.05 -0.391,0 -0.762,-0.084 -1.113,-0.252 C -4.348,9.436 -5.02,8.183 -5.02,6.363 c 0,-1.05 0.266,-1.932 0.798,-2.646 0.588,-0.812 1.379,-1.218 2.373,-1.218 1.037,0 1.925,0.343 2.667,1.029 l 0,-3.948 C 0.524,-0.14 0.252,0 0,0" /></g><g
           transform="translate(191.1592,126.3337)"
           id="g180"><path
             id="path182"
             style="fill:#231f20;fill-opacity:1;fill-rule:nonzero;stroke:none"
             d="m 0,0 -7.728,0 c 0.294,0.406 0.442,0.854 0.442,1.344 l 0,10.143 c 0,0.518 -0.154,0.966 -0.463,1.344 l 7.581,0 0,-2.961 c -0.42,0.308 -0.86,0.462 -1.322,0.462 l -2.857,0 0,-1.953 2.143,0 c 0.336,0 0.685,0.119 1.05,0.357 l 0,-3.192 C -1.561,5.768 -1.918,5.88 -2.226,5.88 l -2.121,0 0,-3.381 3.319,0 c 0.433,0 0.937,0.168 1.511,0.504 L 0,0 Z" /></g><g
           transform="translate(200.125,351.0417)"
           id="g184"><path
             id="path186"
             style="fill:none;stroke:#231f20;stroke-width:4;stroke-linecap:butt;stroke-linejoin:miter;stroke-miterlimit:10;stroke-dasharray:none;stroke-opacity:1"
             d="M 0,0 -64.5,0 0,0 Z" /></g><g
           transform="translate(195,308.1667)"
           id="g188"><path
             id="path190"
             style="fill:#ffffff;fill-opacity:1;fill-rule:nonzero;stroke:none"
             d="m 0,0 -0.506,27.5 -54.113,0 -0.506,-27.5 12.481,0 c 1.515,-7.138 7.916,-12.5 15.587,-12.5 7.671,0 14.072,5.362 15.587,12.5 L 0,0 Z" /></g><g
           transform="translate(195,308.1667)"
           id="g192"><path
             id="path194"
             style="fill:none;stroke:#231f20;stroke-width:4;stroke-linecap:butt;stroke-linejoin:miter;stroke-miterlimit:10;stroke-dasharray:none;stroke-opacity:1"
             d="m 0,0 -0.506,27.5 -54.113,0 -0.506,-27.5 12.481,0 c 1.515,-7.138 7.916,-12.5 15.587,-12.5 7.671,0 14.072,5.362 15.587,12.5 L 0,0 Z" /></g><g
           transform="translate(195,308.1667)"
           id="g196"><path
             id="path198"
             style="fill:#ffffff;fill-opacity:1;fill-rule:nonzero;stroke:none"
             d="m 0,0 -0.506,27.5 -54.113,0 -0.506,-27.5 12.481,0 c 1.515,-7.138 7.916,-12.5 15.587,-12.5 7.671,0 14.072,5.362 15.587,12.5 L 0,0 Z" /></g><g
           transform="translate(195,308.1667)"
           id="g200"><path
             id="path202"
             style="fill:none;stroke:#231f20;stroke-width:4;stroke-linecap:butt;stroke-linejoin:miter;stroke-miterlimit:10;stroke-dasharray:none;stroke-opacity:1"
             d="m 0,0 -0.506,27.5 -54.113,0 -0.506,-27.5 12.481,0 c 1.515,-7.138 7.916,-12.5 15.587,-12.5 7.671,0 14.072,5.362 15.587,12.5 L 0,0 Z" /></g><g
           transform="translate(157.5,313.1667)"
           id="g204"><path
             id="path206"
             style="fill:#ffffff;fill-opacity:1;fill-rule:nonzero;stroke:#3871c1;stroke-width:3;stroke-linecap:butt;stroke-linejoin:miter;stroke-miterlimit:10;stroke-dasharray:none;stroke-opacity:1"
             d="M 0,0 -15.542,0" /></g><g
           transform="translate(192.9583,313.0417)"
           id="g208"><path
             id="path210"
             style="fill:#ffffff;fill-opacity:1;fill-rule:nonzero;stroke:#3871c1;stroke-width:3;stroke-linecap:butt;stroke-linejoin:miter;stroke-miterlimit:10;stroke-dasharray:none;stroke-opacity:1"
             d="M 0,0 -14.646,0.062" /></g><g
           transform="translate(142.1875,330.3333)"
           id="g212"><path
             id="path214"
             style="fill:#ffffff;fill-opacity:1;fill-rule:nonzero;stroke:#3871c1;stroke-width:3;stroke-linecap:butt;stroke-linejoin:miter;stroke-miterlimit:10;stroke-dasharray:none;stroke-opacity:1"
             d="M 0,0 50.5,0" /></g><g
           transform="translate(182.9006,79.3147)"
           id="g216"><path
             id="path218"
             style="fill:#40bb6a;fill-opacity:1;fill-rule:nonzero;stroke:none"
             d="m 0,0 c -0.619,-0.764 -0.981,-1.512 -1.174,-2.431 -1.027,-0.103 -1.893,-0.2 -2.916,-0.327 -1.254,-0.163 -2.304,-0.352 -3.529,-0.635 -1.145,-0.264 -2.093,-0.554 -3.177,-0.971 -1.634,-0.629 -2.93,-1.335 -4.294,-2.341 -4.147,3.056 -8.79,3.764 -13.914,4.274 -0.237,1.037 -0.67,1.976 -1.481,2.756 -0.737,0.698 -1.55,1.142 -2.592,1.416 l -0.078,12.953 36.018,0 L 2.889,1.739 C 1.687,1.425 0.763,0.869 0,0 m -33.26,32.037 3.772,-0.013 0.015,1.89 c 1.921,0.26 3.5,0.762 5.161,1.641 l 0.519,0.366 c 0.432,0.333 0.82,0.592 1.3,0.871 1.293,0.655 2.507,1.033 3.984,1.239 2.744,0.414 5.154,0.347 7.861,-0.222 1.167,-0.242 2.119,-0.581 3.147,-1.12 0.447,-0.262 0.806,-0.508 1.203,-0.825 l 0.427,-0.307 0.094,-0.049 c 1.634,-0.858 3.185,-1.346 5.071,-1.594 l 0.015,-1.89 3.52,0.012 0.008,-10.601 -36.074,-1 -0.023,11.602 z M 4.378,33.393 0.849,33.38 0.836,35.139 c -2.138,0.1 -3.932,0.571 -5.812,1.526 -0.162,0.08 -0.886,0.721 -1.691,1.164 -4.296,2.365 -12.461,2.415 -16.662,0.101 -0.876,-0.482 -1.7,-1.179 -1.874,-1.265 -1.88,-0.955 -3.674,-1.426 -5.812,-1.526 l -0.014,-1.759 -3.79,0.013 0.197,-32.742 c 2.864,-0.31 4.054,-1.92 4.233,-4.299 1.432,-0.147 2.64,-0.279 4.069,-0.446 4.313,-0.582 7.974,-1.666 11.141,-4.369 l 0.089,-0.077 0.081,0.07 c 3.169,2.708 6.833,3.793 11.149,4.376 1.43,0.167 2.638,0.299 4.07,0.446 0.179,2.379 1.369,3.989 4.233,4.299 L 4.378,33.393 Z" /></g><g
           transform="translate(194.3333,88)"
           id="g220"><path
             id="path222"
             style="fill:#3871c1;fill-opacity:1;fill-rule:nonzero;stroke:none"
             d="m 0,0 -52.833,0 -1.5,15.5 56,0 L 0,0 Z" /></g><g
           transform="translate(145.7344,97.8981)"
           id="g224"><path
             id="path226"
             style="fill:#ffffff;fill-opacity:1;fill-rule:nonzero;stroke:none"
             d="m 0,0 c -0.279,0 -0.545,-0.149 -0.798,-0.446 -0.291,-0.362 -0.437,-0.833 -0.437,-1.416 0,-0.583 0.146,-1.058 0.437,-1.425 0.253,-0.298 0.519,-0.446 0.798,-0.446 0.285,0 0.551,0.148 0.798,0.446 0.298,0.367 0.447,0.842 0.447,1.425 0,0.583 -0.149,1.054 -0.447,1.416 C 0.551,-0.149 0.285,0 0,0 m 0,-4.94 c -0.716,0 -1.327,0.299 -1.833,0.897 -0.507,0.599 -0.761,1.319 -0.761,2.162 0,0.842 0.254,1.563 0.761,2.161 0.506,0.599 1.117,0.898 1.833,0.898 0.722,0 1.336,-0.299 1.843,-0.898 0.507,-0.598 0.76,-1.319 0.76,-2.161 0,-0.843 -0.253,-1.563 -0.76,-2.162 C 1.336,-4.641 0.722,-4.94 0,-4.94" /></g><g
           transform="translate(150.5239,97.7653)"
           id="g228"><path
             id="path230"
             style="fill:#ffffff;fill-opacity:1;fill-rule:nonzero;stroke:none"
             d="m 0,0 -0.268,0 0,-1.701 0.297,0 c 0.676,0 1.014,0.309 1.014,0.927 0,0.318 -0.099,0.535 -0.296,0.649 C 0.6,-0.042 0.351,0 0,0 m 0.171,-2.831 -0.439,0 0,-1.188 c 0,-0.228 0.073,-0.431 0.219,-0.608 l -1.748,0 c 0.133,0.177 0.199,0.38 0.199,0.608 l 0,4.588 c 0,0.235 -0.069,0.438 -0.209,0.609 l 2.081,0 C 1.597,1.178 2.262,0.51 2.269,-0.827 2.275,-1.327 2.129,-1.761 1.83,-2.129 1.461,-2.598 0.908,-2.831 0.171,-2.831" /></g><g
           transform="translate(156.6782,93.1384)"
           id="g232"><path
             id="path234"
             style="fill:#ffffff;fill-opacity:1;fill-rule:nonzero;stroke:none"
             d="m 0,0 -3.496,0 c 0.133,0.184 0.2,0.387 0.2,0.608 l 0,4.588 c 0,0.235 -0.07,0.438 -0.209,0.609 l 3.429,0 0,-1.34 c -0.19,0.139 -0.389,0.209 -0.598,0.209 l -1.292,0 0,-0.884 0.968,0 c 0.152,0 0.311,0.054 0.476,0.162 l 0,-1.444 C -0.706,2.609 -0.868,2.66 -1.007,2.66 l -0.959,0 0,-1.529 1.501,0 c 0.196,0 0.423,0.075 0.683,0.227 L 0,0 Z" /></g><g
           transform="translate(160.3413,93.1384)"
           id="g236"><path
             id="path238"
             style="fill:#ffffff;fill-opacity:1;fill-rule:nonzero;stroke:none"
             d="m 0,0 -1.544,3.02 0,-2.405 c 0,-0.224 0.072,-0.429 0.218,-0.615 l -1.748,0 c 0.133,0.184 0.199,0.387 0.199,0.608 l 0,4.588 c 0,0.235 -0.069,0.438 -0.208,0.609 l 1.558,0 1.463,-2.841 0,2.232 c 0,0.235 -0.074,0.438 -0.219,0.609 l 1.758,0 C 1.337,5.634 1.268,5.428 1.268,5.187 l 0,-4.579 C 1.268,0.387 1.337,0.184 1.477,0 L 0,0 Z" /></g><g
           transform="translate(166.3203,93.0055)"
           id="g240"><path
             id="path242"
             style="fill:#ffffff;fill-opacity:1;fill-rule:nonzero;stroke:none"
             d="m 0,0 c -0.107,0 -0.478,0.058 -1.111,0.172 -0.108,0.024 -0.187,0.033 -0.238,0.027 -0.12,0 -0.295,-0.107 -0.523,-0.323 l 0,2.309 c 0.52,-0.608 1.102,-0.913 1.748,-0.913 0.533,0 0.799,0.19 0.799,0.57 0,0.271 -0.257,0.521 -0.77,0.749 -0.608,0.271 -1.007,0.483 -1.197,0.635 -0.361,0.297 -0.541,0.695 -0.541,1.195 0,0.53 0.18,0.934 0.541,1.213 0.33,0.253 0.763,0.38 1.302,0.38 0.158,0 0.342,-0.031 0.551,-0.091 0.209,-0.06 0.357,-0.094 0.446,-0.1 0.095,0 0.228,0.095 0.399,0.285 l 0,-2.147 c -0.481,0.576 -0.982,0.865 -1.501,0.865 -0.272,0 -0.408,-0.101 -0.408,-0.304 0,-0.138 0.072,-0.243 0.218,-0.312 C -0.101,4.134 0.168,4.02 0.522,3.868 1.511,3.432 2.005,2.815 2.005,2.02 2.005,1.47 1.807,0.995 1.411,0.597 1.015,0.199 0.545,0 0,0" /></g><g
           transform="translate(171.2793,97.8981)"
           id="g244"><path
             id="path246"
             style="fill:#ffffff;fill-opacity:1;fill-rule:nonzero;stroke:none"
             d="m 0,0 c -0.279,0 -0.545,-0.149 -0.798,-0.446 -0.291,-0.362 -0.437,-0.833 -0.437,-1.416 0,-0.583 0.146,-1.058 0.437,-1.425 0.253,-0.298 0.519,-0.446 0.798,-0.446 0.285,0 0.551,0.148 0.798,0.446 0.298,0.367 0.447,0.842 0.447,1.425 0,0.583 -0.149,1.054 -0.447,1.416 C 0.551,-0.149 0.285,0 0,0 m 0,-4.94 c -0.716,0 -1.327,0.299 -1.833,0.897 -0.507,0.599 -0.761,1.319 -0.761,2.162 0,0.842 0.254,1.563 0.761,2.161 0.506,0.599 1.117,0.898 1.833,0.898 0.722,0 1.336,-0.299 1.843,-0.898 0.507,-0.598 0.76,-1.319 0.76,-2.161 0,-0.843 -0.253,-1.563 -0.76,-2.162 C 1.336,-4.641 0.722,-4.94 0,-4.94" /></g><g
           transform="translate(178.395,98.3346)"
           id="g248"><path
             id="path250"
             style="fill:#ffffff;fill-opacity:1;fill-rule:nonzero;stroke:none"
             d="m 0,0 0,-3.667 c 0,-0.082 0.038,-0.202 0.114,-0.36 -0.253,-0.438 -0.507,-0.745 -0.76,-0.922 -0.323,-0.222 -0.76,-0.333 -1.311,-0.333 -0.564,0 -1.01,0.117 -1.339,0.351 -0.235,0.165 -0.482,0.466 -0.742,0.904 0.077,0.176 0.115,0.297 0.115,0.36 l 0,3.667 c 0,0.234 -0.07,0.437 -0.209,0.608 l 1.719,0 c -0.12,-0.266 -0.18,-0.471 -0.18,-0.618 l 0,-3.752 c 0,-0.145 0.062,-0.261 0.188,-0.346 0.125,-0.086 0.274,-0.132 0.448,-0.138 0.154,0 0.297,0.044 0.429,0.133 0.132,0.089 0.198,0.206 0.198,0.351 l 0,3.752 c 0,0.147 -0.064,0.352 -0.19,0.618 l 1.729,0 C 0.07,0.437 0,0.234 0,0" /></g><g
           transform="translate(180.9331,97.7653)"
           id="g252"><path
             id="path254"
             style="fill:#ffffff;fill-opacity:1;fill-rule:nonzero;stroke:none"
             d="m 0,0 -0.268,0 0,-1.559 0.297,0 c 0.338,0 0.587,0.055 0.746,0.163 0.185,0.134 0.278,0.363 0.278,0.688 l -0.01,0.029 c 0,0.299 -0.108,0.496 -0.325,0.592 C 0.584,-0.029 0.345,0 0,0 M 1.686,-4.788 C 1.26,-4.813 0.93,-4.529 0.695,-3.934 0.529,-3.509 0.415,-3.233 0.352,-3.107 0.301,-3.006 0.208,-2.866 0.075,-2.688 l -0.343,0 0,-1.331 c 0,-0.228 0.073,-0.431 0.219,-0.608 l -1.748,0 c 0.133,0.177 0.199,0.38 0.199,0.608 l 0,4.588 c 0,0.235 -0.069,0.438 -0.209,0.609 l 2.09,0 c 1.318,0 1.983,-0.668 1.995,-2.005 0,-0.747 -0.304,-1.282 -0.912,-1.606 0.216,-0.272 0.377,-0.55 0.485,-0.836 C 1.978,-3.592 2.079,-3.81 2.155,-3.924 2.288,-4.102 2.465,-4.222 2.687,-4.285 2.585,-4.38 2.483,-4.462 2.382,-4.532 2.127,-4.69 1.896,-4.775 1.686,-4.788" /></g><g
           transform="translate(187.2393,93.1384)"
           id="g256"><path
             id="path258"
             style="fill:#ffffff;fill-opacity:1;fill-rule:nonzero;stroke:none"
             d="m 0,0 c -0.114,-0.025 -0.371,-0.051 -0.77,-0.076 -0.816,-0.019 -1.481,0.224 -1.995,0.731 -0.272,0.273 -0.489,0.614 -0.65,1.022 -0.162,0.408 -0.243,0.808 -0.243,1.202 0,0.898 0.304,1.634 0.912,2.203 0.545,0.52 1.22,0.786 2.024,0.799 0.127,0 0.26,-0.017 0.399,-0.048 0.139,-0.032 0.228,-0.048 0.266,-0.048 0.127,0 0.253,0.07 0.38,0.209 l 0,-1.776 c -0.342,0.316 -0.735,0.475 -1.178,0.475 -0.177,0 -0.345,-0.038 -0.503,-0.114 -0.608,-0.31 -0.913,-0.877 -0.913,-1.7 0,-0.476 0.121,-0.874 0.361,-1.197 0.266,-0.368 0.624,-0.551 1.074,-0.551 0.469,0 0.871,0.154 1.207,0.465 l 0,-1.786 C 0.237,-0.063 0.114,0 0,0" /></g><g
           transform="translate(191.7134,93.1384)"
           id="g260"><path
             id="path262"
             style="fill:#ffffff;fill-opacity:1;fill-rule:nonzero;stroke:none"
             d="m 0,0 -3.496,0 c 0.133,0.184 0.2,0.387 0.2,0.608 l 0,4.588 c 0,0.235 -0.07,0.438 -0.209,0.609 l 3.429,0 0,-1.34 c -0.19,0.139 -0.389,0.209 -0.598,0.209 l -1.292,0 0,-0.884 0.968,0 c 0.152,0 0.311,0.054 0.476,0.162 l 0,-1.444 C -0.706,2.609 -0.868,2.66 -1.007,2.66 l -0.959,0 0,-1.529 1.501,0 c 0.196,0 0.423,0.075 0.683,0.227 L 0,0 Z" /></g><g
           transform="translate(159.5659,84.8171)"
           id="g264"><path
             id="path266"
             style="fill:#231f20;fill-opacity:1;fill-rule:nonzero;stroke:none"
             d="m 0,0 0,-4.774 c 0,-0.238 0.066,-0.449 0.198,-0.633 l -1.748,0 c 0.138,0.184 0.208,0.395 0.208,0.633 l 0,2.125 -1.276,-2.828 -1.285,2.837 0,-2.134 c 0,-0.238 0.069,-0.449 0.208,-0.633 l -1.748,0 c 0.132,0.184 0.198,0.395 0.198,0.633 l 0,4.774 c 0,0.243 -0.069,0.454 -0.208,0.633 l 1.553,0 1.285,-2.838 1.281,2.838 1.542,0 C 0.069,0.454 0,0.243 0,0" /></g><g
           transform="translate(163.7993,79.4098)"
           id="g268"><path
             id="path270"
             style="fill:#231f20;fill-opacity:1;fill-rule:nonzero;stroke:none"
             d="m 0,0 -3.478,0 c 0.133,0.191 0.199,0.402 0.199,0.633 l 0,4.774 c 0,0.243 -0.07,0.454 -0.208,0.633 l 3.411,0 0,-1.394 c -0.189,0.145 -0.387,0.217 -0.595,0.217 l -1.285,0 0,-0.919 0.964,0 c 0.151,0 0.308,0.056 0.472,0.168 l 0,-1.503 c -0.183,0.106 -0.343,0.159 -0.482,0.159 l -0.954,0 0,-1.591 1.493,0 c 0.195,0 0.422,0.079 0.68,0.236 L 0,0 Z" /></g><g
           transform="translate(167.8628,79.4098)"
           id="g272"><path
             id="path274"
             style="fill:#231f20;fill-opacity:1;fill-rule:nonzero;stroke:none"
             d="m 0,0 -3.478,0 c 0.133,0.191 0.199,0.402 0.199,0.633 l 0,4.774 c 0,0.243 -0.07,0.454 -0.208,0.633 l 3.411,0 0,-1.394 c -0.189,0.145 -0.387,0.217 -0.595,0.217 l -1.285,0 0,-0.919 0.964,0 c 0.151,0 0.308,0.056 0.472,0.168 l 0,-1.503 c -0.183,0.106 -0.343,0.159 -0.482,0.159 l -0.954,0 0,-1.591 1.493,0 c 0.195,0 0.422,0.079 0.68,0.236 L 0,0 Z" /></g><g
           transform="translate(172.6318,84.2731)"
           id="g276"><path
             id="path278"
             style="fill:#231f20;fill-opacity:1;fill-rule:nonzero;stroke:none"
             d="m 0,0 -1.187,0 0,-4.221 c 0,-0.151 0.063,-0.366 0.189,-0.642 l -1.73,0 c 0.145,0.177 0.218,0.388 0.218,0.633 l 0,4.23 -1.181,0 c -0.202,0 -0.432,-0.079 -0.69,-0.237 l 0.227,1.414 4.621,0 0.227,-1.414 C 0.434,-0.079 0.203,0 0,0" /></g><g
           transform="translate(177.7666,84.8171)"
           id="g280"><path
             id="path282"
             style="fill:#231f20;fill-opacity:1;fill-rule:nonzero;stroke:none"
             d="m 0,0 0,-3.815 c 0,-0.086 0.038,-0.211 0.114,-0.376 -0.253,-0.455 -0.505,-0.775 -0.757,-0.959 -0.321,-0.231 -0.755,-0.346 -1.304,-0.346 -0.56,0 -1.005,0.122 -1.332,0.365 -0.233,0.172 -0.479,0.485 -0.737,0.94 0.076,0.184 0.113,0.309 0.113,0.376 l 0,3.815 c 0,0.243 -0.069,0.454 -0.208,0.633 l 1.711,0 C -2.52,0.355 -2.58,0.142 -2.58,-0.01 l 0,-3.905 c 0,-0.151 0.062,-0.272 0.187,-0.36 0.125,-0.089 0.274,-0.137 0.446,-0.144 0.154,0 0.296,0.046 0.427,0.139 0.131,0.092 0.197,0.214 0.197,0.365 l 0,3.905 c 0,0.152 -0.063,0.365 -0.189,0.643 l 1.72,0 C 0.069,0.454 0,0.243 0,0" /></g><g
           transform="translate(180.292,84.2233)"
           id="g284"><path
             id="path286"
             style="fill:#231f20;fill-opacity:1;fill-rule:nonzero;stroke:none"
             d="m 0,0 -0.266,0 0,-1.769 0.295,0 c 0.673,0 1.009,0.322 1.009,0.964 0,0.331 -0.099,0.557 -0.295,0.676 C 0.597,-0.043 0.349,0 0,0 m 0.17,-2.945 -0.436,0 0,-1.236 c 0,-0.237 0.072,-0.448 0.217,-0.632 l -1.739,0 c 0.133,0.184 0.199,0.395 0.199,0.632 l 0,4.775 c 0,0.243 -0.07,0.454 -0.208,0.633 l 2.069,0 C 1.589,1.227 2.25,0.531 2.257,-0.859 2.263,-1.38 2.118,-1.832 1.821,-2.214 1.454,-2.701 0.904,-2.945 0.17,-2.945" /></g><g
           transform="translate(158.2227,109.7077)"
           id="g288"><path
             id="path290"
             style="fill:#231f20;fill-opacity:1;fill-rule:nonzero;stroke:none"
             d="m 0,0 0,-3.582 c 0,-0.174 0.056,-0.331 0.168,-0.472 l -1.416,0 c 0.113,0.141 0.169,0.298 0.169,0.472 l 0,1.602 -1.037,-2.124 -1.036,2.132 0,-1.61 c 0,-0.174 0.056,-0.331 0.169,-0.472 l -1.416,0 c 0.112,0.141 0.168,0.298 0.168,0.472 l 0,3.582 c 0,0.186 -0.059,0.346 -0.177,0.48 l 1.263,0 1.031,-2.14 1.045,2.14 1.246,0 C 0.059,0.346 0,0.186 0,0" /></g><g
           transform="translate(160.793,109.3708)"
           id="g292"><path
             id="path294"
             style="fill:#231f20;fill-opacity:1;fill-rule:nonzero;stroke:none"
             d="m 0,0 c -0.23,0 -0.444,-0.118 -0.641,-0.354 -0.241,-0.281 -0.362,-0.649 -0.362,-1.104 0,-0.455 0.121,-0.823 0.362,-1.105 0.197,-0.235 0.411,-0.353 0.641,-0.353 0.225,0 0.438,0.118 0.64,0.353 0.236,0.282 0.354,0.65 0.354,1.105 0,0.455 -0.118,0.823 -0.354,1.104 C 0.438,-0.118 0.225,0 0,0 m 0,-3.852 c -0.579,0 -1.072,0.234 -1.479,0.7 -0.408,0.466 -0.611,1.028 -0.611,1.685 0,0.657 0.203,1.22 0.611,1.686 0.407,0.467 0.9,0.699 1.479,0.699 0.579,0 1.071,-0.232 1.479,-0.699 C 1.886,-0.247 2.09,-0.81 2.09,-1.467 2.09,-2.124 1.886,-2.686 1.479,-3.152 1.071,-3.618 0.579,-3.852 0,-3.852" /></g><g
           transform="translate(165.6396,105.654)"
           id="g296"><path
             id="path298"
             style="fill:#231f20;fill-opacity:1;fill-rule:nonzero;stroke:none"
             d="m 0,0 -1.215,2.325 0.008,-1.853 c 0,-0.174 0.054,-0.331 0.161,-0.472 l -1.408,0 c 0.113,0.141 0.169,0.298 0.169,0.472 l 0,3.582 c 0,0.185 -0.059,0.345 -0.177,0.48 l 1.255,0 1.172,-2.224 0,1.744 c 0,0.185 -0.056,0.345 -0.169,0.48 l 1.416,0 C 1.1,4.399 1.044,4.239 1.044,4.054 l 0,-3.582 C 1.044,0.298 1.097,0.141 1.204,0 L 0,0 Z" /></g><g
           transform="translate(170.7036,109.3034)"
           id="g300"><path
             id="path302"
             style="fill:#231f20;fill-opacity:1;fill-rule:nonzero;stroke:none"
             d="m 0,0 -0.961,0 0,-3.169 c 0,-0.112 0.048,-0.272 0.143,-0.48 l -1.39,0 c 0.112,0.134 0.168,0.292 0.168,0.471 L -2.04,0 -2.992,0 C -3.155,0 -3.34,-0.062 -3.548,-0.186 l 0.177,1.071 3.742,0 0.177,-1.071 C 0.34,-0.062 0.157,0 0,0" /></g><g
           transform="translate(173.7544,105.654)"
           id="g304"><path
             id="path306"
             style="fill:#231f20;fill-opacity:1;fill-rule:nonzero;stroke:none"
             d="m 0,0 c 0.107,0.141 0.16,0.298 0.16,0.472 l 0,1.753 -1.138,0 0,-1.753 c 0,-0.174 0.057,-0.331 0.169,-0.472 l -1.407,0 c 0.112,0.141 0.168,0.298 0.168,0.472 l 0,3.582 c 0,0.185 -0.059,0.345 -0.177,0.48 l 1.416,0 C -0.921,4.388 -0.978,4.228 -0.978,4.054 l 0,-0.952 1.138,0 0,0.952 c 0,0.185 -0.056,0.345 -0.168,0.48 l 1.416,0 C 1.295,4.399 1.239,4.239 1.239,4.054 l 0,-3.582 C 1.239,0.298 1.292,0.141 1.399,0 L 0,0 Z" /></g><g
           transform="translate(178.457,105.654)"
           id="g308"><path
             id="path310"
             style="fill:#231f20;fill-opacity:1;fill-rule:nonzero;stroke:none"
             d="m 0,0 -2.815,0 c 0.112,0.141 0.169,0.298 0.169,0.472 l 0,3.582 c 0,0.185 -0.06,0.345 -0.177,0.48 l 1.382,0 C -1.531,4.326 -1.576,4.166 -1.576,4.054 l 0,-3.169 1.205,0 c 0.157,0 0.34,0.059 0.548,0.177 L 0,0 Z" /></g><g
           transform="translate(181.4233,109.8512)"
           id="g312"><path
             id="path314"
             style="fill:#231f20;fill-opacity:1;fill-rule:nonzero;stroke:none"
             d="m 0,0 -0.918,-2.284 0,-1.442 c 0,-0.173 0.059,-0.331 0.177,-0.471 l -1.501,0 c 0.118,0.14 0.178,0.298 0.178,0.471 l 0,1.416 L -3.051,0 c -0.045,0.095 -0.174,0.208 -0.387,0.337 l 1.491,0 C -2.008,0.27 -2.039,0.203 -2.039,0.136 c 0,-0.023 0.005,-0.045 0.017,-0.068 l 0.527,-1.348 0.515,1.348 c 0.013,0.023 0.02,0.045 0.02,0.068 0,0.066 -0.032,0.134 -0.093,0.201 l 1.441,0 C 0.292,0.28 0.219,0.232 0.169,0.193 0.079,0.126 0.022,0.062 0,0" /></g><g
           transform="translate(142.1875,327.1667)"
           id="g316"><path
             id="path318"
             style="fill:none;stroke:#3871c1;stroke-width:1;stroke-linecap:butt;stroke-linejoin:miter;stroke-miterlimit:10;stroke-dasharray:none;stroke-opacity:1"
             d="M 0,0 50.438,0" /></g><path
           id="path320"
           style="fill:#40bb6a;fill-opacity:1;fill-rule:nonzero;stroke:none"
           d="m 157.667,322.28 -15.583,0 0,-4.226 15.583,0 0,4.226 z" /><path
           id="path322"
           style="fill:#40bb6a;fill-opacity:1;fill-rule:nonzero;stroke:none"
           d="m 177.271,318.054 15.479,0 0,4.226 -15.479,0 0,-4.226 z" /><g
           transform="translate(178,311.4167)"
           id="g324"><path
             id="path326"
             style="fill:#ffffff;fill-opacity:1;fill-rule:nonzero;stroke:none"
             d="m 0,0 c 0,-4.971 -4.029,-9 -9,-9 l -2,0 c -4.971,0 -9,4.029 -9,9 l 0,10.5 c 0,4.971 4.029,9 9,9 l 2,0 c 4.971,0 9,-4.029 9,-9 L 0,0 Z" /></g><g
           transform="translate(178,311.4167)"
           id="g328"><path
             id="path330"
             style="fill:none;stroke:#3fbb6a;stroke-width:3;stroke-linecap:butt;stroke-linejoin:miter;stroke-miterlimit:10;stroke-dasharray:none;stroke-opacity:1"
             d="m 0,0 c 0,-4.971 -4.029,-9 -9,-9 l -2,0 c -4.971,0 -9,4.029 -9,9 l 0,10.5 c 0,4.971 4.029,9 9,9 l 2,0 c 4.971,0 9,-4.029 9,-9 L 0,0 Z" /></g><g
           transform="translate(168.1292,324.0455)"
           id="g332"><path
             id="path334"
             style="fill:#231f20;fill-opacity:1;fill-rule:nonzero;stroke:none"
             d="m 0,0 c -0.396,0 -0.775,-0.211 -1.135,-0.635 -0.414,-0.513 -0.621,-1.184 -0.621,-2.013 0,-0.829 0.207,-1.504 0.621,-2.026 0.36,-0.424 0.739,-0.636 1.135,-0.636 0.406,0 0.784,0.212 1.135,0.636 0.423,0.522 0.635,1.197 0.635,2.026 0,0.829 -0.212,1.5 -0.635,2.013 C 0.784,-0.211 0.406,0 0,0 m 0,-7.025 c -1.018,0 -1.887,0.425 -2.608,1.277 -0.72,0.85 -1.08,1.875 -1.08,3.073 0,1.198 0.36,2.223 1.08,3.074 0.721,0.851 1.59,1.276 2.608,1.276 1.027,0 1.9,-0.425 2.621,-1.276 0.72,-0.851 1.081,-1.876 1.081,-3.074 0,-1.198 -0.361,-2.223 -1.081,-3.073 C 1.9,-6.6 1.027,-7.025 0,-7.025" /></g><g
           transform="translate(168.0953,308.0805)"
           id="g336"><path
             id="path338"
             style="fill:#231f20;fill-opacity:1;fill-rule:nonzero;stroke:none"
             d="m 0,0 c -0.153,0 -0.68,0.082 -1.581,0.245 -0.153,0.035 -0.266,0.048 -0.337,0.039 -0.171,0 -0.419,-0.153 -0.743,-0.46 l 0,3.283 c 0.738,-0.864 1.567,-1.296 2.485,-1.296 0.757,0 1.135,0.269 1.135,0.809 0,0.386 -0.364,0.741 -1.094,1.065 -0.864,0.386 -1.432,0.688 -1.702,0.903 -0.514,0.423 -0.77,0.989 -0.77,1.699 0,0.755 0.256,1.331 0.77,1.726 0.468,0.359 1.085,0.539 1.851,0.539 C 0.239,8.552 0.5,8.51 0.798,8.424 1.095,8.339 1.306,8.291 1.433,8.282 1.568,8.282 1.757,8.418 2,8.688 L 2,5.634 c -0.685,0.82 -1.396,1.23 -2.135,1.23 -0.387,0 -0.581,-0.144 -0.581,-0.432 0,-0.198 0.103,-0.346 0.311,-0.445 C -0.144,5.879 0.239,5.718 0.744,5.502 2.149,4.881 2.851,4.005 2.851,2.872 2.851,2.09 2.569,1.416 2.006,0.85 1.443,0.283 0.775,0 0,0" /></g></g></g></g></svg>
